<svg xmlns="http://www.w3.org/2000/svg" width="120.388" height="20.151" viewBox="0 0 120.388 20.151"><defs><style>.a{fill:#231f20;}.b{fill:#008fc0;}</style></defs><g transform="translate(32.733 1.59)"><path class="a" d="M769.063,386.106a1.408,1.408,0,0,1,1.416,1.412,1.419,1.419,0,1,1-1.416-1.412m0,.276a1.138,1.138,0,0,0-.986.566,1.13,1.13,0,0,0,0,1.14,1.136,1.136,0,0,0,.986.565,1.107,1.107,0,0,0,.572-.152,1.136,1.136,0,0,0-.572-2.12m-.336,1.892h-.307v-1.5h.711a.654.654,0,0,1,.279.053.377.377,0,0,1,.17.149.437.437,0,0,1,.057.225.388.388,0,0,1-.107.274.479.479,0,0,1-.3.141.377.377,0,0,1,.158.11,2.084,2.084,0,0,1,.16.246l.177.3h-.379l-.124-.241a1.78,1.78,0,0,0-.148-.241.344.344,0,0,0-.122-.106.365.365,0,0,0-.15-.027h-.08Zm0-1.261v.407h.246a.581.581,0,0,0,.253-.043.173.173,0,0,0,.087-.173.161.161,0,0,0-.076-.14.421.421,0,0,0-.235-.051Z" transform="translate(-682.824 -381.35)"/><path class="a" d="M540.595,364.421a1.817,1.817,0,0,1-.53,1.323,1.767,1.767,0,0,1-1.313.54,1.847,1.847,0,0,1-1.867-1.863,1.759,1.759,0,0,1,.541-1.311,1.824,1.824,0,0,1,1.325-.529,1.847,1.847,0,0,1,1.843,1.84M540.318,379h-3.111V368h3.111Z" transform="translate(-481.468 -360.823)"/><path class="a" d="M587.533,409.709h-3.11v-5.8a2.9,2.9,0,0,0-.9-2.133,2.947,2.947,0,0,0-2.151-.895,3,3,0,0,0-2.174.883,2.889,2.889,0,0,0-.9,2.144v5.8h-3.111V403.9a5.886,5.886,0,0,1,1.8-4.35,6.276,6.276,0,0,1,8.756,0,5.885,5.885,0,0,1,1.8,4.35Z" transform="translate(-514.884 -391.53)"/><path class="a" d="M694.114,409.709H691v-5.8a2.9,2.9,0,0,0-.9-2.133,2.949,2.949,0,0,0-2.151-.895,3,3,0,0,0-2.174.883,2.889,2.889,0,0,0-.9,2.144v5.8h-3.111V403.9a5.886,5.886,0,0,1,1.8-4.35,6.275,6.275,0,0,1,8.756,0,5.885,5.885,0,0,1,1.8,4.35Z" transform="translate(-607.885 -391.53)"/><path class="a" d="M112.438,408.437A6.139,6.139,0,0,1,102,404.01a5.887,5.887,0,0,1,1.8-4.351,6.2,6.2,0,0,1,8.48-.2l-1.867,2.493a2.927,2.927,0,0,0-2.235-.966,2.981,2.981,0,0,0-2.166.882,2.89,2.89,0,0,0-.9,2.143,2.928,2.928,0,0,0,.9,2.154,2.958,2.958,0,0,0,2.166.894A2.864,2.864,0,0,0,110.457,406Z" transform="translate(-102 -391.624)"/><rect class="a" width="3.111" height="18.192" transform="translate(11.618 0)"/><path class="a" d="M237.441,404.009a6.086,6.086,0,1,1-1.786-4.35,5.945,5.945,0,0,1,1.786,4.35m-3.111,0a2.9,2.9,0,0,0-.9-2.131,2.933,2.933,0,0,0-2.143-.894,2.981,2.981,0,0,0-2.166.882,2.89,2.89,0,0,0-.9,2.142,2.928,2.928,0,0,0,.9,2.154,2.96,2.96,0,0,0,2.166.893,3.04,3.04,0,0,0,3.042-3.047" transform="translate(-209.425 -391.624)"/><path class="a" d="M339.763,404.02a6.175,6.175,0,1,1-12.35,0v-6.141h3.111v6.141a3.065,3.065,0,0,0,6.129,0v-6.141h3.11Z" transform="translate(-298.689 -391.623)"/><path class="a" d="M443.523,361.168a6.164,6.164,0,1,1-12.328,0,5.886,5.886,0,0,1,1.8-4.35,5.99,5.99,0,0,1,4.378-1.779,6.161,6.161,0,0,1,3.042.782v-7.038h3.111Zm-3.111,0a2.9,2.9,0,0,0-.9-2.131,2.933,2.933,0,0,0-2.143-.894,2.981,2.981,0,0,0-2.166.882,2.89,2.89,0,0,0-.9,2.142,2.928,2.928,0,0,0,.9,2.154,2.96,2.96,0,0,0,2.166.894,3.04,3.04,0,0,0,3.042-3.048" transform="translate(-389.246 -348.787)"/></g><path class="b" d="M264.184,213.048a.92.92,0,0,1,.357.73v5.344a.928.928,0,0,1-.928.926H250.759a6.981,6.981,0,1,1,.851-13.91,7.1,7.1,0,0,1,13.828-1.2,7.122,7.122,0,0,1,.821-.048,7,7,0,0,1,6.994,6.981,6.806,6.806,0,0,1-4.824,6.518l-.127.041v-1.972l.057-.026a4.989,4.989,0,0,0,3.039-4.562,5.141,5.141,0,0,0-6.392-4.975,6.636,6.636,0,0,0-1.4.565.823.823,0,1,1-.9-1.375,5.42,5.42,0,0,1,1-.478,5.241,5.241,0,0,0-10.286,1.251,6.755,6.755,0,0,1,.927.56.823.823,0,0,1-.969,1.33,5.205,5.205,0,0,0-1.038-.579.919.919,0,0,1-.11-.025,5.131,5.131,0,1,0-1.467,10.046h11.926v-3.966l-4.723-3.674-4.437,3.71a.926.926,0,1,1-1.055-1.523l4.991-4.1a.928.928,0,0,1,1.1.029" transform="translate(-243.765 -199.93)"/><path class="b" d="M1.184,0h0A1.181,1.181,0,0,1,2.369,1.181v0A1.184,1.184,0,0,1,1.186,2.365h0A1.181,1.181,0,0,1,0,1.184v0A1.184,1.184,0,0,1,1.184,0Z" transform="translate(14.732 14.059)"/></svg>